<?xml version="1.0" standalone="no"?>
<!DOCTYPE svg PUBLIC "-//W3C//DTD SVG 20010904//EN"
 "http://www.w3.org/TR/2001/REC-SVG-20010904/DTD/svg10.dtd">
<svg version="1.0" xmlns="http://www.w3.org/2000/svg"
 width="1024.000000pt" height="1024.000000pt" viewBox="0 0 1024.000000 1024.000000"
 preserveAspectRatio="xMidYMid meet">

<g transform="translate(0.000000,1024.000000) scale(0.100000,-0.100000)"
fill="#000000" stroke="none">
<path d="M2762 8205 c-500 -91 -896 -504 -952 -994 -14 -123 -13 -4061 1
-4188 37 -332 226 -639 510 -829 113 -75 222 -125 357 -162 l97 -27 2285 -3
c2366 -3 2354 -3 2514 38 365 93 686 396 805 759 53 163 51 42 51 2312 1 2268
3 2163 -50 2319 -62 179 -150 321 -285 455 -150 151 -313 245 -523 303 l-97
27 -2320 2 c-1888 1 -2334 -1 -2393 -12z m941 -823 c27 -28 27 -30 27 -168 l0
-139 100 -22 c295 -64 480 -262 480 -513 l0 -50 -195 0 -195 0 -6 28 c-20 81
-66 131 -160 174 -43 20 -65 23 -179 22 -113 0 -138 -3 -190 -23 -207 -82
-238 -321 -55 -436 60 -38 158 -72 357 -124 316 -84 431 -133 543 -237 138
-129 183 -353 116 -585 -46 -159 -149 -276 -309 -353 -87 -42 -233 -86 -284
-86 l-23 0 0 -170 0 -170 -139 0 c-133 0 -139 1 -165 25 -26 24 -26 25 -26
165 0 77 -3 140 -7 140 -35 1 -204 44 -254 65 -188 80 -317 220 -363 397 -16
61 -24 168 -13 168 4 0 92 0 196 0 l190 0 16 -55 c28 -98 110 -168 235 -200
94 -25 282 -17 365 15 74 28 138 89 154 145 28 101 3 197 -65 253 -50 42 -108
63 -334 122 -102 26 -219 61 -260 75 -262 95 -404 227 -454 421 -41 160 -26
320 44 461 74 151 236 267 435 315 50 11 96 22 103 24 9 3 12 46 12 174 l0
170 138 0 138 0 27 -28z m3868 -191 c19 -19 29 -40 29 -58 0 -15 -29 -229 -63
-475 -69 -491 -70 -494 -139 -512 -19 -5 -47 -6 -61 -2 -14 3 -85 63 -157 134
l-132 127 -1561 -1562 c-1414 -1414 -1566 -1563 -1600 -1569 -74 -13 -111 8
-249 143 -71 68 -133 123 -138 121 -5 -2 -132 -130 -283 -286 -151 -156 -287
-292 -303 -302 -81 -54 -197 -22 -253 70 -27 45 -29 132 -2 175 28 47 748 779
779 792 41 18 108 15 150 -6 20 -11 62 -45 92 -76 30 -31 86 -84 123 -117 l69
-61 1462 1462 1462 1462 -134 127 c-112 107 -134 133 -139 163 -4 28 0 41 19
64 24 27 44 32 479 120 250 51 469 93 487 94 25 1 41 -7 63 -28z m-148 -1564
c15 -9 35 -29 44 -44 17 -26 18 -109 21 -1418 3 -1543 6 -1454 -62 -1496 -29
-17 -53 -19 -329 -19 -330 0 -341 2 -374 63 -17 30 -18 113 -18 1439 l0 1407
21 28 c45 62 59 64 379 61 258 -3 294 -5 318 -21z m-1065 -1071 l37 -34 3
-897 2 -897 -39 -39 -39 -39 -303 0 c-329 1 -334 1 -370 56 -18 28 -19 56 -19
914 0 858 1 886 19 914 36 54 41 55 369 56 l302 0 38 -34z m-1089 -1000 c15
-8 35 -29 45 -48 16 -30 17 -66 14 -411 l-3 -379 -38 -34 -38 -35 -305 3 -306
3 -34 37 -34 38 0 381 0 381 39 39 39 39 296 0 c237 0 303 -3 325 -14z"/>
</g>
</svg>
